<svg width="57" height="52" viewBox="0 0 57 52" fill="none" xmlns="http://www.w3.org/2000/svg">
<path fill-rule="evenodd" clip-rule="evenodd" d="M33.4441 44.747C33.776 44.4177 34.1909 44.0883 34.5229 43.759C38.5063 39.8071 41.3279 34.6203 42.3237 28.8571C42.5727 27.2928 42.7387 25.6462 42.7387 23.9995C42.7387 23.4232 42.7387 22.8469 42.6557 22.2706C42.2408 15.2724 39.1702 8.93293 34.4399 4.24006C34.108 3.91073 33.776 3.58141 33.3611 3.25208C32.1163 2.18178 30.8714 1.1938 29.4606 0.37049C28.6308 -0.123497 27.5519 -0.123497 26.722 0.37049C25.3113 1.1938 24.0664 2.18178 22.8216 3.25208C22.4897 3.58141 22.0747 3.91073 21.7428 4.24006C17.9254 8.19195 15.1038 13.2142 14.0249 18.895C14.4399 18.648 14.9378 18.4834 15.3527 18.2364C21.4108 15.5194 31.6183 14.6961 36.5976 19.636C33.942 18.8127 31.0374 18.3187 28.1328 18.3187C25.1453 18.3187 22.3237 18.8127 19.6681 19.636C17.5104 20.2946 15.5187 21.2003 13.61 22.3529C11.6183 23.5056 9.87554 24.9052 8.21579 26.5518C4.23237 30.4214 1.41079 35.6082 0.414939 41.3714C0.165975 42.9357 0 44.5823 0 46.229C0 46.3113 0 46.3936 0 46.476C0 47.3816 0.497926 48.2049 1.3278 48.6166C2.82158 49.4399 4.39835 50.0985 6.0581 50.5925C8.71371 51.4158 11.6183 51.9098 14.5229 51.9098C18.2573 51.9098 21.8258 51.1688 25.0623 49.9339C24.6474 49.6869 24.1494 49.3575 23.7345 49.0282C17.2614 44.5 12.0332 37.3372 13.9419 28.8571C14.9378 34.6203 17.7594 39.8071 21.7428 43.759C22.0747 44.0883 22.4067 44.4177 22.8216 44.747C24.3984 46.1466 26.2241 47.4639 28.0499 48.4519C32.1163 50.6748 36.6806 51.9098 41.6598 51.9098C44.6474 51.9098 47.469 51.4158 50.1246 50.5925C51.7843 50.0985 53.3611 49.4399 54.8549 48.6166C55.6848 48.2049 56.1827 47.3816 56.1827 46.476C56.1827 46.3936 56.1827 46.3113 56.1827 46.229C56.1827 44.5823 56.0167 42.9357 55.7678 41.3714C54.7719 35.6082 51.9503 30.4214 47.9669 26.4695C47.137 25.6462 46.3072 24.9875 45.4773 24.2465C45.4773 32.7266 41.8258 41.3714 33.4441 44.747ZM37.0125 25.7285C36.5976 31.2447 34.1909 36.1846 30.4565 39.8071C29.7096 40.5481 28.9627 41.2068 28.1328 41.8654C27.303 41.2068 26.5561 40.5481 25.8092 39.8071C22.0747 36.1846 19.6681 31.2447 19.2532 25.7285C21.9917 24.5759 24.9793 23.9172 28.1328 23.9172C31.2864 23.9172 34.2739 24.5759 37.0125 25.7285Z" fill="url(#paint0_linear)"/>
<path fill-rule="evenodd" clip-rule="evenodd" d="M33.4436 44.7475C33.7755 44.4181 34.1905 44.0888 34.5224 43.7595C38.5058 39.8076 41.3274 34.6207 42.3233 28.8575C42.4062 28.6105 42.4062 28.2812 42.4892 28.0342C41.6594 24.5763 39.5847 21.5301 36.6801 19.5541C34.0245 18.7308 31.1199 18.2368 28.2153 18.2368C25.4767 18.2368 22.7381 18.6485 20.2485 19.3895C16.929 21.6124 14.6883 24.741 14.1074 28.8575C14.1074 28.7752 14.1074 28.9399 14.1074 28.8575C15.1033 34.6207 17.9249 39.8076 21.9083 43.7595C22.1572 44.0065 22.4892 44.3358 22.7381 44.5828C24.4809 45.3238 26.3896 45.7354 28.3813 45.7354C30.1241 45.7354 31.8668 45.4061 33.4436 44.7475ZM25.8087 39.8076C22.0742 36.185 19.6676 31.2451 19.2527 25.729C21.9913 24.5763 24.9788 23.9177 28.1324 23.9177C31.2859 23.9177 34.2734 24.5763 37.012 25.729C36.5971 31.2451 34.1905 36.185 30.456 39.8076C29.7091 40.5486 28.9622 41.2072 28.1324 41.8659C27.3025 41.2072 26.5556 40.5486 25.8087 39.8076Z" fill="#113934"/>
<path fill-rule="evenodd" clip-rule="evenodd" d="M33.4436 44.7475C33.7755 44.4181 34.1905 44.0888 34.5224 43.7595C38.5058 39.8076 41.3274 34.6207 42.3233 28.8575C42.4062 28.6105 42.4062 28.2812 42.4892 28.0342C41.6594 24.5763 39.5847 21.5301 36.6801 19.5541C34.0245 18.7308 31.1199 18.2368 28.2153 18.2368C25.4767 18.2368 22.7381 18.6485 20.2485 19.3895C16.929 21.6124 14.6883 24.741 14.1074 28.8575C14.1074 28.7752 14.1074 28.9399 14.1074 28.8575C15.1033 34.6207 17.9249 39.8076 21.9083 43.7595C22.1572 44.0065 22.4892 44.3358 22.7381 44.5828C24.4809 45.3238 26.3896 45.7354 28.3813 45.7354C30.1241 45.7354 31.8668 45.4061 33.4436 44.7475ZM25.8087 39.8076C22.0742 36.185 19.6676 31.2451 19.2527 25.729C21.9913 24.5763 24.9788 23.9177 28.1324 23.9177C31.2859 23.9177 34.2734 24.5763 37.012 25.729C36.5971 31.2451 34.1905 36.185 30.456 39.8076C29.7091 40.5486 28.9622 41.2072 28.1324 41.8659C27.3025 41.2072 26.5556 40.5486 25.8087 39.8076Z" fill="url(#paint1_radial)"/>
<defs>
<linearGradient id="paint0_linear" x1="41.0238" y1="64.502" x2="13.533" y2="17.5738" gradientUnits="userSpaceOnUse">
<stop stop-color="#0D342F"/>
<stop offset="0.5" stop-color="#106D5A"/>
<stop offset="0.9904" stop-color="#77C64D"/>
</linearGradient>
<radialGradient id="paint1_radial" cx="0" cy="0" r="1" gradientUnits="userSpaceOnUse" gradientTransform="translate(28.2176 32.0026) scale(14.0185 13.9076)">
<stop stop-color="#168A7F" stop-opacity="0"/>
<stop offset="0.4692" stop-color="#16887D" stop-opacity="0.4692"/>
<stop offset="0.6382" stop-color="#158177" stop-opacity="0.6382"/>
<stop offset="0.7587" stop-color="#15766C" stop-opacity="0.7587"/>
<stop offset="0.8561" stop-color="#14655C" stop-opacity="0.8561"/>
<stop offset="0.9385" stop-color="#124F48" stop-opacity="0.9385"/>
<stop offset="1" stop-color="#113934"/>
</radialGradient>
</defs>
</svg>
